<svg xmlns="http://www.w3.org/2000/svg" version="1.1" xmlns:xlink="http://www.w3.org/1999/xlink" xmlns:svgjs="http://svgjs.dev/svgjs" width="1000" height="1000" viewBox="0 0 1000 1000"><rect width="1000" height="1000" fill="#ffffff"></rect><g transform="matrix(0.7,0,0,0.7,149.57575757575756,282.1265587044535)"><svg viewBox="0 0 396 247" data-background-color="#0c1d36" preserveAspectRatio="xMidYMid meet" height="623" width="1000" xmlns="http://www.w3.org/2000/svg" xmlns:xlink="http://www.w3.org/1999/xlink"><g id="tight-bounds" transform="matrix(1,0,0,1,0.2400000000000091,-0.09999999999999432)"><svg viewBox="0 0 395.52 247.2" height="247.2" width="395.52"><g><svg></svg></g><g><svg viewBox="0 0 395.52 247.2" height="247.2" width="395.52"><g transform="matrix(1,0,0,1,75.54432,88.05196787859626)"><svg viewBox="0 0 244.43135999999998 71.09606424280746" height="71.09606424280746" width="244.43135999999998"><g><svg viewBox="0 0 244.43135999999998 71.09606424280746" height="71.09606424280746" width="244.43135999999998"><g><svg viewBox="0 0 244.43135999999998 71.09606424280746" height="71.09606424280746" width="244.43135999999998"><g><svg viewBox="0 0 244.43135999999998 71.09606424280746" height="71.09606424280746" width="244.43135999999998"><g><svg viewBox="0 0 244.43135999999998 71.09606424280746" height="71.09606424280746" width="244.43135999999998"><g><svg viewBox="0 0 244.43135999999998 71.09606424280746" height="71.09606424280746" width="244.43135999999998"><g transform="matrix(1,0,0,1,0,0)"><svg width="244.43135999999998" viewBox="3.700000047683716 -35 158.13999938964844 46" height="71.09606424280746" data-palette-color="#f9cc0b"><path d="M7.9 0L3.7 0 3.7-35 7.9-35 26.55-6.95 26.55-35 30.75-35 30.75 0 26.55 0 7.9-28.05 7.9 0ZM46.15 0.6L46.15 0.6Q43.05 0.6 41-0.45 38.95-1.5 37.95-3.25 36.95-5 36.95-7.05L36.95-7.05Q36.95-10.85 39.85-12.9 42.75-14.95 47.75-14.95L47.75-14.95 54.45-14.95 54.45-15.25Q54.45-18.5 52.75-20.18 51.05-21.85 48.2-21.85L48.2-21.85Q45.75-21.85 43.97-20.63 42.2-19.4 41.75-17.05L41.75-17.05 37.45-17.05Q37.7-19.75 39.27-21.6 40.85-23.45 43.2-24.43 45.55-25.4 48.2-25.4L48.2-25.4Q53.4-25.4 56.02-22.63 58.65-19.85 58.65-15.25L58.65-15.25 58.65 0 54.9 0 54.65-4.45Q53.6-2.35 51.57-0.88 49.55 0.6 46.15 0.6ZM46.8-2.95L46.8-2.95Q49.2-2.95 50.92-4.2 52.65-5.45 53.55-7.45 54.45-9.45 54.45-11.65L54.45-11.65 54.45-11.7 48.1-11.7Q44.4-11.7 42.87-10.43 41.35-9.15 41.35-7.25L41.35-7.25Q41.35-5.3 42.77-4.13 44.2-2.95 46.8-2.95ZM69.15 0L64.95 0 64.95-24.8 68.75-24.8 69.05-21.2Q70.25-23.2 72.25-24.3 74.25-25.4 76.75-25.4L76.75-25.4Q79.7-25.4 81.82-24.2 83.95-23 85.09-20.55L85.09-20.55Q86.4-22.8 88.67-24.1 90.95-25.4 93.59-25.4L93.59-25.4Q98.05-25.4 100.7-22.73 103.34-20.05 103.34-14.5L103.34-14.5 103.34 0 99.2 0 99.2-14.05Q99.2-17.9 97.65-19.85 96.09-21.8 93.2-21.8L93.2-21.8Q90.2-21.8 88.22-19.48 86.25-17.15 86.25-12.85L86.25-12.85 86.25 0 82.05 0 82.05-14.05Q82.05-17.9 80.5-19.85 78.95-21.8 76.05-21.8L76.05-21.8Q73.09-21.8 71.12-19.48 69.15-17.15 69.15-12.85L69.15-12.85 69.15 0ZM113.89 11L109.69 11 109.69-24.8 113.49-24.8 113.89-20.7Q115.09-22.5 117.32-23.95 119.54-25.4 122.99-25.4L122.99-25.4Q126.69-25.4 129.44-23.7 132.19-22 133.72-19.05 135.24-16.1 135.24-12.35L135.24-12.35Q135.24-8.6 133.72-5.68 132.19-2.75 129.42-1.07 126.64 0.6 122.94 0.6L122.94 0.6Q119.89 0.6 117.52-0.65 115.14-1.9 113.89-4.15L113.89-4.15 113.89 11ZM122.49-3.05L122.49-3.05Q124.99-3.05 126.89-4.23 128.79-5.4 129.89-7.5 130.99-9.6 130.99-12.4L130.99-12.4Q130.99-15.2 129.89-17.3 128.79-19.4 126.89-20.58 124.99-21.75 122.49-21.75L122.49-21.75Q119.99-21.75 118.09-20.58 116.19-19.4 115.09-17.3 113.99-15.2 113.99-12.4L113.99-12.4Q113.99-9.6 115.09-7.5 116.19-5.4 118.09-4.23 119.99-3.05 122.49-3.05ZM149.34 0.6L149.34 0.6Q146.24 0.6 144.19-0.45 142.14-1.5 141.14-3.25 140.14-5 140.14-7.05L140.14-7.05Q140.14-10.85 143.04-12.9 145.94-14.95 150.94-14.95L150.94-14.95 157.64-14.95 157.64-15.25Q157.64-18.5 155.94-20.18 154.24-21.85 151.39-21.85L151.39-21.85Q148.94-21.85 147.17-20.63 145.39-19.4 144.94-17.05L144.94-17.05 140.64-17.05Q140.89-19.75 142.47-21.6 144.04-23.45 146.39-24.43 148.74-25.4 151.39-25.4L151.39-25.4Q156.59-25.4 159.22-22.63 161.84-19.85 161.84-15.25L161.84-15.25 161.84 0 158.09 0 157.84-4.45Q156.79-2.35 154.77-0.88 152.74 0.6 149.34 0.6ZM149.99-2.95L149.99-2.95Q152.39-2.95 154.12-4.2 155.84-5.45 156.74-7.45 157.64-9.45 157.64-11.65L157.64-11.65 157.64-11.7 151.29-11.7Q147.59-11.7 146.07-10.43 144.54-9.15 144.54-7.25L144.54-7.25Q144.54-5.3 145.97-4.13 147.39-2.95 149.99-2.95Z" opacity="1" transform="matrix(1,0,0,1,0,0)" fill="#000000" class="undefined-text-0" data-fill-palette-color="primary" id="text-0"></path></svg></g></svg></g></svg></g></svg></g></svg></g></svg></g></svg></g><path d="M188.962 82.052L188.962 25.331 385.501 25.331 385.501 221.869 188.962 221.869 188.962 165.148 195.374 165.148 195.374 215.458 379.089 215.458 379.089 31.742 195.374 31.742 195.374 82.052Z" fill="#000000" stroke="transparent" data-fill-palette-color="primary"></path></svg></g><defs></defs></svg><rect width="395.52" height="247.2" fill="none" stroke="none" visibility="hidden"></rect></g></svg></g></svg>