<svg xmlns="http://www.w3.org/2000/svg" version="1.1" xmlns:xlink="http://www.w3.org/1999/xlink" xmlns:svgjs="http://svgjs.dev/svgjs" width="128" height="128" viewBox="0 0 128 128"><g transform="matrix(0.8046875,0,0,0.8046875,12.333870967741937,12.333870967741937)"><svg viewBox="0 0 155 155" data-background-color="#0c1d36" preserveAspectRatio="xMidYMid meet" height="128" width="128" xmlns="http://www.w3.org/2000/svg" xmlns:xlink="http://www.w3.org/1999/xlink"><g id="tight-bounds" transform="matrix(1,0,0,1,0.25,0.25)"><svg viewBox="0 0 154.5 154.5" height="154.5" width="154.5"><g><svg></svg></g><g><svg viewBox="0 0 154.5 154.5" height="154.5" width="154.5"><g transform="matrix(1,0,0,1,54.44790958714286,47.746371)"><svg viewBox="0 0 45.60418082571428 59.00725799999999" height="59.00725799999999" width="45.60418082571428"><g><svg viewBox="0 0 45.60418082571428 59.00725799999999" height="59.00725799999999" width="45.60418082571428"><g><svg viewBox="0 0 45.60418082571428 59.00725799999999" height="59.00725799999999" width="45.60418082571428"><g><svg viewBox="0 0 45.60418082571428 59.00725799999999" height="59.00725799999999" width="45.60418082571428"><g><svg viewBox="0 0 45.60418082571428 59.00725799999999" height="59.00725799999999" width="45.60418082571428"><g transform="matrix(1,0,0,1,0,0)"><svg width="45.60418082571428" viewBox="3.7 -35 27.05 35" height="59.00725799999999" data-palette-color="#f9cc0b"><path d="M7.9 0L3.7 0 3.7-35 7.9-35 26.55-6.95 26.55-35 30.75-35 30.75 0 26.55 0 7.9-28.05 7.9 0Z" opacity="1" transform="matrix(1,0,0,1,0,0)" fill="#f9cc0b" class="undefined-text-0" data-fill-palette-color="primary" id="text-0"></path></svg></g></svg></g></svg></g></svg></g></svg></g></svg></g><path d="M54.448 41.746L54.448 1 100.052 1 100.052 41.746 94.731 41.746 94.731 6.321 59.769 6.321 59.769 41.746 54.448 41.746M54.448 112.754L54.448 153.5 100.052 153.5 100.052 112.754 94.731 112.754 94.731 148.179 59.769 148.179 59.769 112.754 54.448 112.754" fill="#f9cc0b" stroke="transparent" data-fill-palette-color="primary"></path></svg></g><defs></defs></svg><rect width="154.5" height="154.5" fill="none" stroke="none" visibility="hidden"></rect></g></svg></g></svg>